<?xml version="1.0" encoding="UTF-8" standalone="no"?><!DOCTYPE svg PUBLIC "-//W3C//DTD SVG 1.1//EN" "http://www.w3.org/Graphics/SVG/1.1/DTD/svg11.dtd"><svg width="100%" height="100%" viewBox="0 0 154 115" version="1.1" xmlns="http://www.w3.org/2000/svg" xmlns:xlink="http://www.w3.org/1999/xlink" xml:space="preserve" xmlns:serif="http://www.serif.com/" style="fill-rule:evenodd;clip-rule:evenodd;stroke-linejoin:round;stroke-miterlimit:1.41421;"><path d="M93.053,46.202l17.906,-15.454l17.907,15.454l0,12.577l-35.813,0l0,-12.577Z" style="fill:#6449d6;"/><rect x="63.074" y="13.191" width="20.977" height="45.588" style="fill:#f5aa00;"/><path d="M37.938,47.464c-0.846,0.705 -2.034,1.016 -3.176,0.729c-1.771,-0.446 -2.766,-2.161 -2.222,-3.829c-1.357,1.222 -3.483,1.223 -4.744,0.004c-1.261,-1.22 -1.183,-3.202 0.174,-4.424c-1.806,0.448 -3.608,-0.541 -4.022,-2.208c-0.413,-1.667 0.717,-3.384 2.523,-3.833c-1.771,-0.445 -2.766,-2.161 -2.221,-3.828c0.545,-1.668 2.425,-2.66 4.196,-2.215c-1.261,-1.22 -1.183,-3.202 0.174,-4.423c1.357,-1.222 3.483,-1.223 4.744,-0.004c-0.413,-1.667 0.717,-3.384 2.524,-3.832c1.806,-0.448 3.608,0.542 4.021,2.209c0.545,-1.668 2.425,-2.661 4.196,-2.215c1.771,0.445 2.767,2.161 2.222,3.829c1.357,-1.222 3.483,-1.223 4.744,-0.004c1.262,1.22 1.184,3.202 -0.174,4.423c1.806,-0.448 3.608,0.542 4.022,2.209c0.414,1.667 -0.717,3.384 -2.523,3.832c1.771,0.446 2.766,2.161 2.221,3.829c-0.544,1.668 -2.425,2.66 -4.196,2.215c1.262,1.219 1.184,3.201 -0.174,4.423c-1.357,1.222 -3.483,1.223 -4.744,0.003c0.413,1.667 -0.717,3.385 -2.523,3.833c-0.713,0.177 -1.425,0.13 -2.051,-0.094l0,10.686l-2.991,0l0,-11.315Z" style="fill:#7ca12b;"/><g><path d="M14.86,94.571l0,-1.28c0,-7.104 1.92,-10.112 6.08,-10.112l0.224,0c3.744,0 5.312,2.208 5.312,7.36l2.368,0l0,-0.896c0,-5.632 -2.56,-8.544 -7.872,-8.544c-5.728,0 -8.48,3.552 -8.48,12.192l0,1.28c0,8.64 2.752,12.192 8.48,12.192c5.312,0 7.872,-2.912 7.872,-8.16l0,-0.32l-2.368,0c0,4.128 -1.568,6.4 -5.312,6.4l-0.224,0c-4.192,0 -6.08,-3.008 -6.08,-10.112Z" style="fill:#615e5c;fill-rule:nonzero;"/><path d="M32.78,106.411l2.24,0l0,-16.96l-2.24,0l0,16.96Zm2.56,-23.84l-2.88,0l0,2.88l2.88,0l0,-2.88Z" style="fill:#615e5c;fill-rule:nonzero;"/><path d="M43.276,89.451l0,-4.8l-2.24,0l0,4.8l-2.688,0l0,2.016l2.688,0l0,10.24c0,3.68 2.08,5.056 4.96,5.056c1.344,0 2.112,-0.256 2.368,-0.352l0,-1.952c-0.256,0.128 -1.12,0.288 -1.824,0.288c-2.144,0 -3.264,-0.64 -3.264,-3.328l0,-9.952l5.408,0l0,-2.016l-5.408,0Z" style="fill:#615e5c;fill-rule:nonzero;"/><path d="M58.124,103.307l-4.832,-13.856l-2.4,0l6.08,16.32l-2.656,7.04l2.592,0l2.4,-7.04l6.08,-16.32l-2.4,0l-4.864,13.856Z" style="fill:#615e5c;fill-rule:nonzero;"/><path d="M76.972,81.451l0,16.896c0,4.352 -1.152,6.336 -4.096,6.336c-2.976,0 -4.128,-1.984 -4.128,-6.4l-2.176,0l0,0.448c0,5.088 1.568,8.032 6.336,8.032c4.672,0 6.368,-3.04 6.368,-8.032l0,-17.28l-2.304,0Z" style="fill:#615e5c;fill-rule:nonzero;"/><path d="M90.7,94.571c4.352,0.608 6.176,2.08 6.176,5.024l0,0.288c0,3.04 -2.272,4.8 -5.664,4.8l-0.224,0c-3.36,0 -5.728,-2.016 -5.728,-6.4l-2.304,0l0,0.32c0,5.152 2.848,8.16 8.128,8.16c4.992,0 8.16,-2.624 8.16,-7.04l0,-0.32c0,-3.84 -2.24,-6.048 -7.68,-6.784c-4.576,-0.64 -5.952,-2.208 -5.952,-4.864l0,-0.256c0,-2.688 2.304,-4.32 5.344,-4.32l0.224,0c3.808,0 5.472,1.984 5.472,6.72l2.304,0l0,-0.768c0,-5.152 -2.304,-8.032 -7.872,-8.032c-4.736,0 -7.84,2.528 -7.84,6.688l0,0.32c0,3.296 2.016,5.728 7.456,6.464Z" style="fill:#615e5c;fill-rule:nonzero;"/><path d="M111.084,106.763c5.728,0 8.576,-3.552 8.576,-12.192l0,-1.28c0,-8.64 -2.848,-12.192 -8.576,-12.192c-5.696,0 -8.544,3.552 -8.544,12.192l0,1.28c0,8.64 2.848,12.192 8.544,12.192Zm-0.096,-2.08c-4.192,0 -6.08,-3.008 -6.08,-10.112l0,-1.28c0,-7.104 1.888,-10.112 6.08,-10.112l0.224,0c4.192,0 6.08,3.008 6.08,10.112l0,1.28c0,7.104 -1.888,10.112 -6.08,10.112l-0.224,0Z" style="fill:#615e5c;fill-rule:nonzero;"/><path d="M140.204,81.451l-2.176,0l0,15.264l0.096,5.792l-11.776,-21.056l-2.496,0l0,24.96l2.176,0l0,-15.264l-0.128,-5.792l11.808,21.056l2.496,0l0,-24.96Z" style="fill:#615e5c;fill-rule:nonzero;"/></g><path d="M128.866,0.945l0.422,0c6.855,0 12.762,1.825 12.762,9.125l0,18.323c0,5.621 3.903,6.862 9.493,6.862l0,1.46c-5.59,0 -9.493,1.241 -9.493,6.862l0,18.323c0,7.3 -5.907,9.125 -12.762,9.125l-0.422,0l0,-1.46c6.539,0 11.075,-1.46 11.075,-8.03l0,-18.031c0,-4.453 2.531,-6.643 6.117,-7.519c-3.586,-0.876 -6.117,-2.993 -6.117,-7.519l0,-18.031c0,-6.57 -4.536,-8.03 -11.075,-8.03l0,-1.46Z" style="fill:#615e5c;fill-rule:nonzero;"/><path d="M23.863,0.945l-0.422,0c-6.856,0 -12.763,1.825 -12.763,9.125l0,18.323c0,5.621 -3.902,6.862 -9.492,6.862l0,1.46c5.59,0 9.492,1.241 9.492,6.862l0,18.323c0,7.3 5.907,9.125 12.763,9.125l0.422,0l0,-1.46c-6.54,0 -11.075,-1.46 -11.075,-8.03l0,-18.031c0,-4.453 -2.531,-6.643 -6.118,-7.519c3.587,-0.876 6.118,-2.993 6.118,-7.519l0,-18.031c0,-6.57 4.535,-8.03 11.075,-8.03l0,-1.46Z" style="fill:#615e5c;fill-rule:nonzero;"/></svg>